<svg width="32.000000" height="32.000000" viewBox="0 0 32 32" fill="none" xmlns="http://www.w3.org/2000/svg" xmlns:xlink="http://www.w3.org/1999/xlink">
	<desc>
			Created with Pixso.
	</desc>
	<defs>
		<clipPath id="clip2_3323">
			<rect id="SVG" width="18.000000" height="18.000000" transform="translate(7.000000 7.000000)" fill="white" fill-opacity="0"/>
		</clipPath>
	</defs>
	<rect id="Background" rx="16.000000" width="32.000000" height="32.000000" fill="#F1EFF4" fill-opacity="1.000000"/>
	<g clip-path="url(#clip2_3323)">
		<mask id="mask2_3326" mask-type="alpha" maskUnits="userSpaceOnUse" x="7.000000" y="7.000000" width="18.000000" height="18.000000">
			<path id="Vector" d="M7 7L25 7L25 25L7 25L7 7Z" fill="#000000" fill-opacity="1.000000" fill-rule="evenodd"/>
		</mask>
		<g mask="url(#mask2_3326)">
			<path id="Vector" d="M21.06 22.18C21.06 22.41 20.99 22.62 20.87 22.81C20.74 22.99 20.57 23.14 20.36 23.22C20.16 23.31 19.93 23.33 19.71 23.29C19.5 23.24 19.29 23.14 19.14 22.98C18.98 22.82 18.87 22.62 18.83 22.4C18.79 22.18 18.81 21.96 18.89 21.75C18.98 21.55 19.12 21.37 19.31 21.25C19.49 21.12 19.71 21.06 19.93 21.06C20.23 21.06 20.52 21.18 20.73 21.39C20.94 21.6 21.06 21.88 21.06 22.18ZM12.62 21.06C12.4 21.06 12.18 21.12 12 21.25C11.81 21.37 11.67 21.55 11.58 21.75C11.5 21.96 11.47 22.18 11.52 22.4C11.56 22.62 11.67 22.82 11.82 22.98C11.98 23.14 12.18 23.24 12.4 23.29C12.62 23.33 12.85 23.31 13.05 23.22C13.26 23.14 13.43 22.99 13.56 22.81C13.68 22.62 13.75 22.41 13.75 22.18C13.75 21.88 13.63 21.6 13.42 21.39C13.2 21.18 12.92 21.06 12.62 21.06ZM23.03 11.72C22.98 11.65 22.91 11.59 22.83 11.56C22.76 11.52 22.67 11.5 22.58 11.5L10.39 11.5L9.82 9.5C9.75 9.26 9.61 9.06 9.42 8.91C9.22 8.76 8.98 8.68 8.74 8.68L7.56 8.68C7.41 8.68 7.27 8.74 7.16 8.85C7.05 8.95 7 9.1 7 9.25C7 9.39 7.05 9.54 7.16 9.64C7.27 9.75 7.41 9.81 7.56 9.81L8.74 9.81L9.43 12.21L9.43 12.22L11.28 18.71C11.39 19.06 11.6 19.37 11.89 19.59C12.18 19.81 12.54 19.93 12.91 19.93L19.64 19.93C20.01 19.93 20.37 19.81 20.66 19.59C20.95 19.37 21.17 19.06 21.27 18.71L23.12 12.21C23.15 12.13 23.15 12.04 23.14 11.96C23.12 11.87 23.09 11.79 23.03 11.72Z" fill="#51267D" fill-opacity="1.000000" fill-rule="nonzero"/>
		</g>
	</g>
</svg>
