<svg width="32.000000" height="32.000000" viewBox="0 0 32 32" fill="none" xmlns="http://www.w3.org/2000/svg" xmlns:xlink="http://www.w3.org/1999/xlink">
	<desc>
			Created with Pixso.
	</desc>
	<defs>
		<clipPath id="clip2_3333">
			<rect id="SVG" width="18.000000" height="18.000000" transform="translate(7.000000 7.000000)" fill="white" fill-opacity="0"/>
		</clipPath>
	</defs>
	<rect id="Background" rx="16.000000" width="32.000000" height="32.000000" fill="#F1EFF4" fill-opacity="1.000000"/>
	<g clip-path="url(#clip2_3333)">
		<path id="Vector" d="M19 17.5C19.96 17.5 20.89 17.87 21.59 18.54C22.29 19.2 22.7 20.12 22.74 21.08L22.75 21.25L22.75 22C22.75 22.37 22.6 22.74 22.35 23.02C22.09 23.29 21.73 23.46 21.36 23.49L21.25 23.5L10.75 23.5C10.37 23.5 10 23.35 9.72 23.09C9.45 22.84 9.28 22.48 9.25 22.11L9.25 22L9.25 21.25C9.25 20.28 9.62 19.35 10.29 18.65C10.96 17.95 11.87 17.54 12.83 17.5L13 17.5L19 17.5ZM16 8.5C16.99 8.5 17.94 8.89 18.65 9.59C19.35 10.3 19.75 11.25 19.75 12.25C19.75 13.24 19.35 14.19 18.65 14.9C17.94 15.6 16.99 16 16 16C15 16 14.05 15.6 13.34 14.9C12.64 14.19 12.25 13.24 12.25 12.25C12.25 11.25 12.64 10.3 13.34 9.59C14.05 8.89 15 8.5 16 8.5Z" fill="#51267D" fill-opacity="1.000000" fill-rule="nonzero"/>
	</g>
</svg>
