<svg width="104.000000" height="28.000000" viewBox="0 0 104 28" fill="none" xmlns="http://www.w3.org/2000/svg" xmlns:xlink="http://www.w3.org/1999/xlink">
	<desc>
			Created with Pixso.
	</desc>
	<defs>
		<clipPath id="clip2_4382">
			<rect id="SVG" width="24.000000" height="24.000000" transform="translate(0.000000 -0.500000)" fill="white" fill-opacity="0"/>
		</clipPath>
		<clipPath id="clip2_4386">
			<rect id="SVG" width="24.000000" height="24.000000" transform="translate(40.000000 -0.500000)" fill="white" fill-opacity="0"/>
		</clipPath>
		<clipPath id="clip2_4390">
			<rect id="SVG" width="24.000000" height="24.000000" transform="translate(80.000000 -0.500000)" fill="white" fill-opacity="0"/>
		</clipPath>
	</defs>
	<g clip-path="url(#clip2_4382)">
		<path id="Vector" d="M7.79 1.5L16.2 1.5C19.39 1.5 22 4.09 22 7.29L22 15.7C22 17.23 21.38 18.71 20.3 19.8C19.21 20.88 17.73 21.5 16.2 21.5L7.79 21.5C4.6 21.5 2 18.9 2 15.7L2 7.29C2 5.76 2.61 4.28 3.69 3.19C4.78 2.11 6.26 1.5 7.79 1.5ZM7.6 3.5C6.64 3.5 5.72 3.87 5.05 4.55C4.37 5.22 4 6.14 4 7.09L4 15.9C4 17.88 5.6 19.5 7.6 19.5L16.39 19.5C17.35 19.5 18.27 19.12 18.94 18.44C19.62 17.77 20 16.85 20 15.9L20 7.09C20 5.11 18.39 3.5 16.39 3.5L7.6 3.5ZM17.25 5C17.58 5 17.89 5.13 18.13 5.36C18.36 5.6 18.5 5.91 18.5 6.25C18.5 6.58 18.36 6.89 18.13 7.13C17.89 7.36 17.58 7.5 17.25 7.5C16.91 7.5 16.6 7.36 16.36 7.13C16.13 6.89 16 6.58 16 6.25C16 5.91 16.13 5.6 16.36 5.36C16.6 5.13 16.91 5 17.25 5ZM12 6.5C13.32 6.5 14.59 7.02 15.53 7.96C16.47 8.9 17 10.17 17 11.5C17 12.82 16.47 14.09 15.53 15.03C14.59 15.97 13.32 16.5 12 16.5C10.67 16.5 9.4 15.97 8.46 15.03C7.52 14.09 7 12.82 7 11.5C7 10.17 7.52 8.9 8.46 7.96C9.4 7.02 10.67 6.5 12 6.5ZM12 8.5C11.2 8.5 10.44 8.81 9.87 9.37C9.31 9.94 9 10.7 9 11.5C9 12.29 9.31 13.05 9.87 13.62C10.44 14.18 11.2 14.5 12 14.5C12.79 14.5 13.55 14.18 14.12 13.62C14.68 13.05 15 12.29 15 11.5C15 10.7 14.68 9.94 14.12 9.37C13.55 8.81 12.79 8.5 12 8.5Z" fill="#808080" fill-opacity="1.000000" fill-rule="nonzero"/>
	</g>
	<g clip-path="url(#clip2_4386)">
		<path id="Vector" d="M62 11.5C62 5.98 57.52 1.5 52 1.5C46.48 1.5 42 5.98 42 11.5C42 16.33 45.43 20.37 50 21.29L50 14.5L48 14.5L48 11.5L50 11.5L50 9C50 7.07 51.56 5.5 53.5 5.5L56 5.5L56 8.5L54 8.5C53.45 8.5 53 8.95 53 9.5L53 11.5L56 11.5L56 14.5L53 14.5L53 21.45C58.04 20.95 62 16.69 62 11.5Z" fill="#808080" fill-opacity="1.000000" fill-rule="nonzero"/>
	</g>
	<g clip-path="url(#clip2_4390)">
		<path id="Vector" d="M90 14.5L95.18 11.5L90 8.5L90 14.5ZM101.56 6.66C101.69 7.13 101.78 7.76 101.84 8.57C101.91 9.37 101.94 10.05 101.94 10.66L102 11.5C102 13.69 101.84 15.29 101.56 16.33C101.31 17.23 100.73 17.8 99.83 18.05C99.35 18.19 98.5 18.28 97.18 18.33C95.87 18.41 94.68 18.44 93.58 18.44L92 18.5C87.81 18.5 85.2 18.33 84.16 18.05C83.27 17.8 82.68 17.23 82.43 16.33C82.31 15.86 82.22 15.23 82.16 14.42C82.08 13.62 82.06 12.94 82.06 12.33L82 11.5C82 9.3 82.16 7.7 82.43 6.66C82.68 5.76 83.27 5.19 84.16 4.94C84.64 4.8 85.5 4.71 86.81 4.66C88.12 4.58 89.31 4.55 90.41 4.55L92 4.5C96.18 4.5 98.79 4.66 99.83 4.94C100.73 5.19 101.31 5.76 101.56 6.66Z" fill="#808080" fill-opacity="1.000000" fill-rule="nonzero"/>
	</g>
</svg>
