<svg width="410.000000" height="16.000000" viewBox="0 0 410 16" fill="none" xmlns="http://www.w3.org/2000/svg" xmlns:xlink="http://www.w3.org/1999/xlink">
	<desc>
			Created with Pixso.
	</desc>
	<defs/>
	<path id="© Delever 2020 - 2024 Barcha huquqlar himoyalangan" d="M318.93 0.91C318.93 1.41 318.5 1.81 317.97 1.81C317.45 1.81 317.02 1.41 317.02 0.91C317.02 0.41 317.45 0 317.97 0C318.5 0 318.93 0.41 318.93 0.91ZM11.31 6.18C11.32 9.49 8.64 12.18 5.31 12.18C2.01 12.18 -0.7 9.49 -0.69 6.18C-0.68 2.87 2.01 0.18 5.31 0.18C8.64 0.18 11.3 2.87 11.31 6.18ZM87.7 12L80.36 12L80.36 10.97L84.2 6.77C85.54 5.3 86.18 4.5 86.18 3.43C86.18 2.2 85.21 1.43 83.95 1.43C82.6 1.43 81.74 2.31 81.74 3.63L80.4 3.63C80.4 1.58 81.95 0.2 83.99 0.2C86.04 0.2 87.49 1.63 87.49 3.43C87.49 4.72 86.9 5.72 84.9 7.86L82.29 10.66L82.29 10.75L87.7 10.75L87.7 12ZM97.88 6.18C97.88 9.98 96.4 12.16 93.84 12.16C91.27 12.16 89.79 9.98 89.79 6.18C89.79 2.41 91.29 0.2 93.84 0.2C96.38 0.2 97.88 2.41 97.88 6.18ZM107.38 12L100.04 12L100.04 10.97L103.88 6.77C105.23 5.3 105.86 4.5 105.86 3.43C105.86 2.2 104.89 1.43 103.63 1.43C102.29 1.43 101.43 2.31 101.43 3.63L100.09 3.63C100.09 1.58 101.64 0.2 103.68 0.2C105.72 0.2 107.18 1.63 107.18 3.43C107.18 4.72 106.59 5.72 104.59 7.86L101.97 10.66L101.97 10.75L107.38 10.75L107.38 12ZM117.57 6.18C117.57 9.98 116.08 12.16 113.52 12.16C110.95 12.16 109.47 9.98 109.47 6.18C109.47 2.41 110.97 0.2 113.52 0.2C116.07 0.2 117.57 2.41 117.57 6.18ZM143.43 12L136.08 12L136.08 10.97L139.93 6.77C141.27 5.3 141.91 4.5 141.91 3.43C141.91 2.2 140.94 1.43 139.68 1.43C138.33 1.43 137.47 2.31 137.47 3.63L136.13 3.63C136.13 1.58 137.68 0.2 139.72 0.2C141.77 0.2 143.22 1.63 143.22 3.43C143.22 4.72 142.63 5.72 140.63 7.86L138.02 10.66L138.02 10.75L143.43 10.75L143.43 12ZM153.61 6.18C153.61 9.98 152.13 12.16 149.56 12.16C147 12.16 145.52 9.98 145.52 6.18C145.52 2.41 147.02 0.2 149.56 0.2C152.11 0.2 153.61 2.41 153.61 6.18ZM163.11 12L155.77 12L155.77 10.97L159.61 6.77C160.95 5.3 161.59 4.5 161.59 3.43C161.59 2.2 160.62 1.43 159.36 1.43C158.01 1.43 157.15 2.31 157.15 3.63L155.81 3.63C155.81 1.58 157.36 0.2 159.4 0.2C161.45 0.2 162.9 1.63 162.9 3.43C162.9 4.72 162.31 5.72 160.31 7.86L157.7 10.66L157.7 10.75L163.11 10.75L163.11 12ZM27.68 6.16C27.68 9.79 25.68 12 22.13 12L18.54 12L18.54 0.36L22.29 0.36C25.68 0.36 27.68 2.54 27.68 6.16ZM39.18 0.36L40.52 0.36L40.52 12L39.18 12L39.18 0.36ZM170.41 9.61L164.93 9.61L164.93 8.45L170.04 0.36L171.75 0.36L171.75 8.36L173.34 8.36L173.34 9.61L171.75 9.61L171.75 12L170.41 12L170.41 9.61ZM184.38 12L180.18 12L180.18 0.36L184.24 0.36C186.68 0.36 187.82 1.75 187.82 3.45C187.82 4.95 186.93 5.61 185.93 5.88L185.93 6C186.99 6.06 188.27 7.06 188.27 8.91C188.27 10.66 187.13 12 184.38 12ZM217.68 4.36C216.35 4.36 215.38 5.22 215.38 6.75L215.38 12L214.04 12L214.04 0.36L215.38 0.36L215.38 4.63L215.5 4.63C215.9 3.73 216.69 3.16 218.06 3.16C219.85 3.16 221.04 4.21 221.04 6.45L221.04 12L219.7 12L219.7 6.54C219.7 5.16 218.94 4.36 217.68 4.36ZM240.65 4.36C239.33 4.36 238.36 5.22 238.36 6.75L238.36 12L237.02 12L237.02 0.36L238.36 0.36L238.36 4.63L238.47 4.63C238.88 3.73 239.67 3.16 241.04 3.16C242.83 3.16 244.02 4.21 244.02 6.45L244.02 12L242.68 12L242.68 6.54C242.68 5.16 241.92 4.36 240.65 4.36ZM284.56 0.36L285.9 0.36L285.9 12L284.56 12L284.56 0.36ZM311.47 4.36C310.15 4.36 309.18 5.22 309.18 6.75L309.18 12L307.84 12L307.84 0.36L309.18 0.36L309.18 4.63L309.29 4.63C309.7 3.73 310.48 3.16 311.86 3.16C313.64 3.16 314.84 4.21 314.84 6.45L314.84 12L313.5 12L313.5 6.54C313.5 5.16 312.73 4.36 311.47 4.36ZM361.88 0.36L363.22 0.36L363.22 12L361.88 12L361.88 0.36ZM91.15 6.18C91.15 9.21 92.14 10.91 93.84 10.91C95.53 10.91 96.52 9.21 96.52 6.18C96.52 3.16 95.52 1.43 93.84 1.43C92.15 1.43 91.15 3.16 91.15 6.18ZM110.83 6.18C110.83 9.21 111.83 10.91 113.52 10.91C115.21 10.91 116.2 9.21 116.2 6.18C116.2 3.16 115.2 1.43 113.52 1.43C111.83 1.43 110.83 3.16 110.83 6.18ZM146.88 6.18C146.88 9.21 147.87 10.91 149.56 10.91C151.25 10.91 152.25 9.21 152.25 6.18C152.25 3.16 151.25 1.43 149.56 1.43C147.88 1.43 146.88 3.16 146.88 6.18ZM0.63 6.18C0.62 8.75 2.73 10.86 5.31 10.86C7.91 10.86 10.01 8.76 10 6.18C9.98 3.58 7.9 1.5 5.31 1.5C2.74 1.5 0.64 3.6 0.63 6.18ZM19.95 1.61L19.95 10.75L22.04 10.75C24.93 10.75 26.32 9 26.32 6.16C26.32 3.33 24.93 1.61 22.2 1.61L19.95 1.61ZM181.58 1.61L181.58 5.47L184.2 5.47C185.47 5.47 186.47 4.68 186.47 3.45C186.47 2.43 185.79 1.61 184.24 1.61L181.58 1.61ZM166.45 8.36L170.41 8.36L170.41 2.16L170.31 2.16L166.45 8.27L166.45 8.36ZM5.37 9.55C3.51 9.55 2 8.04 2 6.18C2 4.31 3.51 2.8 5.37 2.8C6.98 2.8 8.33 3.94 8.55 5.45L7.18 5.45C7.02 4.67 6.25 4.12 5.37 4.12C4.23 4.12 3.31 5.04 3.31 6.18C3.31 7.31 4.23 8.23 5.37 8.23C6.25 8.23 6.91 7.68 7.06 6.91L8.44 6.91C8.22 8.42 6.98 9.55 5.37 9.55ZM71.27 12L69.93 12L69.93 3.27L71.22 3.27L71.22 4.58L71.31 4.58C71.63 3.72 72.54 3.13 73.59 3.13C73.79 3.13 74.14 3.14 74.29 3.16L74.29 4.52C74.2 4.5 73.83 4.43 73.47 4.43C72.2 4.43 71.27 5.29 71.27 6.47L71.27 12ZM200.77 12L199.43 12L199.43 3.27L200.72 3.27L200.72 4.58L200.81 4.58C201.13 3.72 202.04 3.13 203.09 3.13C203.29 3.13 203.64 3.14 203.79 3.16L203.79 4.52C203.7 4.5 203.33 4.43 202.97 4.43C201.7 4.43 200.77 5.29 200.77 6.47L200.77 12ZM298.72 12L297.38 12L297.38 3.27L298.68 3.27L298.68 4.58L298.77 4.58C299.09 3.72 299.99 3.13 301.04 3.13C301.24 3.13 301.59 3.14 301.74 3.16L301.74 4.52C301.65 4.5 301.28 4.43 300.93 4.43C299.65 4.43 298.72 5.29 298.72 6.47L298.72 12ZM36.99 9.97C36.58 11.29 35.29 12.18 33.52 12.18C30.99 12.18 29.45 10.38 29.45 7.7C29.45 5.02 31.02 3.16 33.38 3.16C35.2 3.16 37.13 4.27 37.13 7.52L37.13 8.08L30.8 8.08C30.86 9.96 31.94 10.97 33.52 10.97C34.57 10.97 35.36 10.52 35.7 9.61L36.99 9.97ZM50.11 9.97C49.7 11.29 48.41 12.18 46.63 12.18C44.11 12.18 42.56 10.38 42.56 7.7C42.56 5.02 44.13 3.16 46.5 3.16C48.31 3.16 50.25 4.27 50.25 7.52L50.25 8.08L43.91 8.08C43.97 9.96 45.06 10.97 46.63 10.97C47.68 10.97 48.47 10.52 48.81 9.61L50.11 9.97ZM67.74 9.97C67.33 11.29 66.04 12.18 64.27 12.18C61.74 12.18 60.2 10.38 60.2 7.7C60.2 5.02 61.77 3.16 64.13 3.16C65.95 3.16 67.88 4.27 67.88 7.52L67.88 8.08L61.55 8.08C61.61 9.96 62.69 10.97 64.27 10.97C65.32 10.97 66.11 10.52 66.45 9.61L67.74 9.97ZM195.56 10.81C195.29 11.38 194.49 12.2 192.97 12.2C191.31 12.2 189.99 11.22 189.99 9.52C189.99 7.52 191.76 7.16 193.38 6.95C194.97 6.75 195.63 6.8 195.63 6.16L195.63 6.11C195.63 4.99 195.02 4.33 193.79 4.33C192.51 4.33 191.81 5.02 191.52 5.66L190.24 5.2C190.93 3.61 192.43 3.16 193.74 3.16C194.86 3.16 196.97 3.47 196.97 6.25L196.97 12L195.63 12L195.63 10.81L195.56 10.81ZM212.09 9.45C211.86 11 210.59 12.18 208.66 12.18C206.2 12.18 204.7 10.29 204.7 7.68C204.7 5.02 206.27 3.16 208.63 3.16C210.47 3.16 211.86 4.25 212.09 5.88L210.75 5.88C210.54 5.08 209.84 4.36 208.66 4.36C207.09 4.36 206.04 5.66 206.04 7.63C206.04 9.66 207.07 10.97 208.66 10.97C209.7 10.97 210.5 10.41 210.75 9.45L212.09 9.45ZM228.65 10.81C228.38 11.38 227.58 12.2 226.07 12.2C224.4 12.2 223.08 11.22 223.08 9.52C223.08 7.52 224.85 7.16 226.47 6.95C228.07 6.75 228.72 6.8 228.72 6.16L228.72 6.11C228.72 4.99 228.12 4.33 226.88 4.33C225.6 4.33 224.9 5.02 224.61 5.66L223.33 5.2C224.02 3.61 225.52 3.16 226.83 3.16C227.95 3.16 230.07 3.47 230.07 6.25L230.07 12L228.72 12L228.72 10.81L228.65 10.81ZM263.06 15.27L261.72 15.27L261.72 10.66L261.61 10.66C261.31 11.13 260.74 12.18 259.06 12.18C256.88 12.18 255.36 10.43 255.36 7.66C255.36 4.91 256.88 3.16 259.09 3.16C260.79 3.16 261.31 4.2 261.61 4.66L261.77 4.66L261.77 3.27L263.06 3.27L263.06 15.27ZM282.11 15.27L280.77 15.27L280.77 10.66L280.65 10.66C280.36 11.13 279.79 12.18 278.11 12.18C275.93 12.18 274.4 10.43 274.4 7.66C274.4 4.91 275.93 3.16 278.13 3.16C279.84 3.16 280.36 4.2 280.65 4.66L280.81 4.66L280.81 3.27L282.11 3.27L282.11 15.27ZM293.52 10.81C293.25 11.38 292.45 12.2 290.93 12.2C289.27 12.2 287.95 11.22 287.95 9.52C287.95 7.52 289.72 7.16 291.33 6.95C292.93 6.75 293.58 6.8 293.58 6.16L293.58 6.11C293.58 4.99 292.98 4.33 291.75 4.33C290.47 4.33 289.77 5.02 289.47 5.66L288.2 5.2C288.88 3.61 290.38 3.16 291.7 3.16C292.82 3.16 294.93 3.47 294.93 6.25L294.93 12L293.58 12L293.58 10.81L293.52 10.81ZM322.43 12L321.09 12L321.09 3.27L322.38 3.27L322.38 4.63L322.5 4.63C322.86 3.7 323.7 3.16 324.84 3.16C325.98 3.16 326.75 3.7 327.18 4.63L327.27 4.63C327.72 3.73 328.63 3.16 329.88 3.16C331.44 3.16 332.54 4.1 332.54 6.16L332.54 12L331.2 12L331.2 6.16C331.2 4.87 330.38 4.36 329.43 4.36C328.2 4.36 327.5 5.19 327.5 6.31L327.5 12L326.13 12L326.13 6.02C326.13 5.02 325.42 4.36 324.41 4.36C323.36 4.36 322.43 5.26 322.43 6.54L322.43 12ZM342.49 7.68C342.49 10.38 340.9 12.18 338.54 12.18C336.18 12.18 334.58 10.38 334.58 7.68C334.58 4.95 336.18 3.16 338.54 3.16C340.9 3.16 342.49 4.95 342.49 7.68ZM358.02 10.81C357.75 11.38 356.95 12.2 355.43 12.2C353.77 12.2 352.45 11.22 352.45 9.52C352.45 7.52 354.22 7.16 355.83 6.95C357.43 6.75 358.08 6.8 358.08 6.16L358.08 6.11C358.08 4.99 357.48 4.33 356.25 4.33C354.97 4.33 354.27 5.02 353.97 5.66L352.7 5.2C353.38 3.61 354.88 3.16 356.2 3.16C357.32 3.16 359.43 3.47 359.43 6.25L359.43 12L358.08 12L358.08 10.81L358.02 10.81ZM370.84 10.81C370.56 11.38 369.77 12.2 368.25 12.2C366.59 12.2 365.27 11.22 365.27 9.52C365.27 7.52 367.04 7.16 368.65 6.95C370.25 6.75 370.9 6.8 370.9 6.16L370.9 6.11C370.9 4.99 370.3 4.33 369.06 4.33C367.79 4.33 367.09 5.02 366.79 5.66L365.52 5.2C366.2 3.61 367.7 3.16 369.02 3.16C370.13 3.16 372.25 3.47 372.25 6.25L372.25 12L370.9 12L370.9 10.81L370.84 10.81ZM378.27 4.36C376.98 4.36 376.04 5.22 376.04 6.75L376.04 12L374.7 12L374.7 3.27L376 3.27L376 4.63L376.11 4.63C376.52 3.75 377.34 3.16 378.66 3.16C380.42 3.16 381.61 4.22 381.61 6.45L381.61 12L380.27 12L380.27 6.54C380.27 5.17 379.51 4.36 378.27 4.36ZM391.36 12.25C391.36 14.5 389.68 15.45 387.59 15.45C385.64 15.45 384.56 14.62 384.02 13.7L385.09 12.95C385.45 13.43 386 14.27 387.59 14.27C389 14.27 390.02 13.61 390.02 12.16L390.02 10.38L389.9 10.38C389.61 10.86 389.06 11.86 387.36 11.86C385.25 11.86 383.65 10.31 383.65 7.58C383.65 4.91 385.18 3.16 387.38 3.16C389.09 3.16 389.63 4.2 389.93 4.66L390.06 4.66L390.06 3.27L391.36 3.27L391.36 12.25ZM398.97 10.81C398.7 11.38 397.9 12.2 396.38 12.2C394.72 12.2 393.4 11.22 393.4 9.52C393.4 7.52 395.17 7.16 396.79 6.95C398.38 6.75 399.04 6.8 399.04 6.16L399.04 6.11C399.04 4.99 398.43 4.33 397.2 4.33C395.92 4.33 395.22 5.02 394.93 5.66L393.65 5.2C394.34 3.61 395.84 3.16 397.15 3.16C398.27 3.16 400.38 3.47 400.38 6.25L400.38 12L399.04 12L399.04 10.81L398.97 10.81ZM406.41 4.36C405.12 4.36 404.18 5.22 404.18 6.75L404.18 12L402.84 12L402.84 3.27L404.13 3.27L404.13 4.63L404.25 4.63C404.66 3.75 405.47 3.16 406.79 3.16C408.56 3.16 409.75 4.22 409.75 6.45L409.75 12L408.41 12L408.41 6.54C408.41 5.17 407.65 4.36 406.41 4.36ZM57.7 3.27L59.15 3.27L55.93 12L54.56 12L51.34 3.27L52.79 3.27L55.2 10.22L55.29 10.22L57.7 3.27ZM249.72 10.81C250.72 10.81 251.97 10.06 251.97 8.43L251.97 3.27L253.31 3.27L253.31 12L251.97 12L251.97 10.52L251.88 10.52C251.47 11.41 250.61 12.11 249.29 12.11C247.66 12.11 246.47 11.04 246.47 8.81L246.47 3.27L247.81 3.27L247.81 8.72C247.81 10 248.61 10.81 249.72 10.81ZM268.77 10.81C269.77 10.81 271.02 10.06 271.02 8.43L271.02 3.27L272.36 3.27L272.36 12L271.02 12L271.02 10.52L270.93 10.52C270.52 11.41 269.65 12.11 268.34 12.11C266.7 12.11 265.52 11.04 265.52 8.81L265.52 3.27L266.86 3.27L266.86 8.72C266.86 10 267.65 10.81 268.77 10.81ZM318.63 12L317.29 12L317.29 3.27L318.63 3.27L318.63 12ZM347.66 13.27C347.15 14.62 346.3 15.27 345.09 15.27C344.63 15.27 344.25 15.18 344.11 15.11L344.45 13.93C345.43 14.18 346.03 14.05 346.52 12.72L346.77 12.04L343.54 3.27L345 3.27L347.41 10.22L347.5 10.22L349.91 3.27L351.36 3.27L347.66 13.27ZM33.38 4.36C31.85 4.36 30.89 5.57 30.8 6.93L35.77 6.93C35.77 5.45 34.83 4.36 33.38 4.36ZM46.5 4.36C44.96 4.36 44 5.57 43.91 6.93L48.88 6.93C48.88 5.45 47.95 4.36 46.5 4.36ZM64.13 4.36C62.6 4.36 61.64 5.57 61.55 6.93L66.52 6.93C66.52 5.45 65.58 4.36 64.13 4.36ZM256.7 7.63C256.7 9.5 257.56 10.97 259.24 10.97C260.86 10.97 261.74 9.61 261.74 7.63C261.74 5.68 260.88 4.36 259.24 4.36C257.54 4.36 256.7 5.79 256.7 7.63ZM275.75 7.63C275.75 9.5 276.61 10.97 278.29 10.97C279.9 10.97 280.79 9.61 280.79 7.63C280.79 5.68 279.93 4.36 278.29 4.36C276.59 4.36 275.75 5.79 275.75 7.63ZM335.93 7.68C335.93 9.43 336.74 10.97 338.54 10.97C340.33 10.97 341.15 9.43 341.15 7.68C341.15 5.93 340.33 4.36 338.54 4.36C336.74 4.36 335.93 5.93 335.93 7.68ZM385 7.56C385 9.38 385.86 10.66 387.54 10.66C389.15 10.66 390.04 9.5 390.04 7.56C390.04 5.68 389.18 4.36 387.54 4.36C385.84 4.36 385 5.79 385 7.56ZM124.15 5.55L129.24 5.55L129.24 6.8L124.15 6.8L124.15 5.55ZM181.58 6.7L181.58 10.75L184.38 10.75C186.22 10.75 186.93 9.93 186.93 8.91C186.93 7.72 185.97 6.7 184.45 6.7L181.58 6.7ZM191.34 9.58C191.34 10.52 192.11 11 193.18 11C194.77 11 195.63 9.93 195.63 8.83L195.63 7.61C195.4 7.88 193.88 8.04 193.31 8.11C192.27 8.25 191.34 8.56 191.34 9.58ZM224.43 9.58C224.43 10.52 225.2 11 226.27 11C227.86 11 228.72 9.93 228.72 8.83L228.72 7.61C228.49 7.88 226.97 8.04 226.4 8.11C225.36 8.25 224.43 8.56 224.43 9.58ZM289.29 9.58C289.29 10.52 290.07 11 291.13 11C292.72 11 293.58 9.93 293.58 8.83L293.58 7.61C293.36 7.88 291.83 8.04 291.27 8.11C290.22 8.25 289.29 8.56 289.29 9.58ZM353.79 9.58C353.79 10.52 354.57 11 355.63 11C357.22 11 358.08 9.93 358.08 8.83L358.08 7.61C357.86 7.88 356.33 8.04 355.77 8.11C354.72 8.25 353.79 8.56 353.79 9.58ZM366.61 9.58C366.61 10.52 367.38 11 368.45 11C370.04 11 370.9 9.93 370.9 8.83L370.9 7.61C370.68 7.88 369.15 8.04 368.59 8.11C367.54 8.25 366.61 8.56 366.61 9.58ZM394.75 9.58C394.75 10.52 395.52 11 396.59 11C398.18 11 399.04 9.93 399.04 8.83L399.04 7.61C398.81 7.88 397.29 8.04 396.72 8.11C395.68 8.25 394.75 8.56 394.75 9.58Z" fill="#808080" fill-opacity="1.000000" fill-rule="evenodd"/>
</svg>
