<svg width="144.000000" height="33.000000" viewBox="0 0 144 33" fill="none" xmlns="http://www.w3.org/2000/svg" xmlns:xlink="http://www.w3.org/1999/xlink">
	<desc>
			Created with Pixso.
	</desc>
	<defs/>
	<path id="🌭Hot-Dog" d="M34.07 26.5L29.77 26.5L29.77 6.13L34.07 6.13L34.07 14.53L42.81 14.53L42.81 6.13L47.11 6.13L47.11 26.5L42.81 26.5L42.81 18.08L34.07 18.08L34.07 26.5ZM108.56 16.3C108.56 22.66 104.81 26.5 98.6 26.5L91.38 26.5L91.38 6.13L98.66 6.13C104.81 6.13 108.56 9.95 108.56 16.3ZM73.01 11.22L75.88 11.22L75.88 14.4L73.01 14.4L73.01 21.8C73.01 22.97 73.59 23.3 74.44 23.3C74.84 23.3 75.28 23.19 75.49 23.15L76.16 26.3C75.73 26.45 74.95 26.67 73.86 26.71C70.79 26.83 68.75 25.35 68.77 22.36L68.77 14.4L66.68 14.4L66.68 11.22L68.77 11.22L68.77 7.57L73.01 7.57L73.01 11.22ZM95.69 9.82L95.69 22.8L98.42 22.8C102.25 22.8 104.27 20.83 104.27 16.3C104.27 11.77 102.25 9.82 98.43 9.82L95.69 9.82ZM64.99 18.92C64.99 23.62 62.11 26.8 57.48 26.8C52.84 26.8 49.96 23.62 49.96 18.92C49.96 14.18 52.84 11.03 57.48 11.03C62.11 11.03 64.99 14.18 64.99 18.92ZM126.08 18.92C126.08 23.62 123.2 26.8 118.57 26.8C113.94 26.8 111.05 23.62 111.05 18.92C111.05 14.18 113.94 11.03 118.57 11.03C123.2 11.03 126.08 14.18 126.08 18.92ZM143.2 26.65C143.2 30.55 140.09 32.54 135.73 32.54C131.62 32.54 129.26 30.69 128.75 28.29L132.67 27.76C133.02 28.68 133.96 29.5 135.83 29.5C137.67 29.5 139.01 28.68 139.01 26.58L139.01 23.79L138.83 23.79C138.27 25.05 136.91 26.28 134.48 26.28C131.03 26.28 128.28 23.91 128.28 18.83C128.28 13.63 131.12 11.03 134.47 11.03C137.02 11.03 138.27 12.54 138.83 13.79L138.99 13.79L138.99 11.22L143.2 11.22L143.2 26.65ZM54.27 18.89C54.27 21.55 55.36 23.51 57.5 23.51C59.6 23.51 60.69 21.55 60.69 18.89C60.69 16.22 59.6 14.25 57.5 14.25C55.36 14.25 54.27 16.22 54.27 18.89ZM115.36 18.89C115.36 21.55 116.45 23.51 118.59 23.51C120.69 23.51 121.78 21.55 121.78 18.89C121.78 16.22 120.69 14.25 118.59 14.25C116.45 14.25 115.36 16.22 115.36 18.89ZM132.61 18.81C132.61 21.44 133.74 23.1 135.82 23.1C137.86 23.1 139.03 21.5 139.03 18.81C139.03 16.13 137.88 14.4 135.82 14.4C133.72 14.4 132.61 16.21 132.61 18.81ZM78.41 16.45L87.69 16.45L87.69 19.82L78.41 19.82L78.41 16.45Z" fill="#000000" fill-opacity="1.000000" fill-rule="evenodd"/>
</svg>
