<svg width="150.000000" height="28.000000" viewBox="0 0 150 28" fill="none" xmlns="http://www.w3.org/2000/svg" xmlns:xlink="http://www.w3.org/1999/xlink">
	<desc>
			Created with Pixso.
	</desc>
	<defs/>
	<path id="🌮Shaurma" d="M44.94 11.99L40.81 11.99C40.66 10.39 39.39 9.45 37.33 9.45C35.22 9.45 34.06 10.42 34.06 11.73C34.03 13.19 35.51 13.85 37.29 14.25L39.11 14.69C42.65 15.49 45.21 17.29 45.21 20.68C45.21 24.41 42.28 26.78 37.31 26.78C32.37 26.78 29.22 24.51 29.11 20.1L33.27 20.1C33.42 22.14 35.02 23.17 37.26 23.17C39.45 23.17 40.86 22.16 40.87 20.67C40.86 19.3 39.63 18.66 37.41 18.12L35.19 17.57C31.75 16.74 29.64 15.02 29.64 12.02C29.63 8.32 32.9 5.85 37.36 5.85C41.89 5.85 44.88 8.36 44.94 11.99ZM55.2 14.55C53.47 14.55 52.26 15.69 52.26 17.66L52.26 26.5L48.02 26.5L48.02 6.13L52.13 6.13L52.13 13.92L52.32 13.92C53.01 12.12 54.56 11.03 56.88 11.03C60.06 11.03 62.17 13.19 62.16 16.77L62.16 26.5L57.92 26.5L57.92 17.53C57.93 15.65 56.92 14.55 55.2 14.55ZM103.4 26.5L99.16 26.5L99.16 11.22L103.27 11.22L103.27 13.89L103.42 13.89C103.98 12 105.38 11 107.09 11C107.52 11 108.05 11.07 108.43 11.16L108.43 14.91C108.03 14.79 107.22 14.68 106.64 14.68C104.77 14.68 103.4 15.97 103.4 17.85L103.4 26.5ZM74.32 24.38C73.57 25.8 72.12 26.78 69.85 26.78C66.94 26.78 64.79 25.25 64.79 22.23C64.79 18.82 67.5 17.81 70.52 17.53C73.18 17.27 74.22 17.14 74.22 16.15L74.22 16.1C74.22 14.84 73.39 14.12 71.95 14.12C70.43 14.12 69.53 14.86 69.24 15.88L65.32 15.56C65.91 12.78 68.32 11.03 71.97 11.03C75.38 11.03 78.46 12.56 78.46 16.19L78.46 26.5L74.44 26.5L74.44 24.38L74.32 24.38ZM114.84 26.5L110.6 26.5L110.6 11.22L114.64 11.22L114.64 13.92L114.82 13.92C115.46 12.12 117.01 11.03 119.08 11.03C121.17 11.03 122.74 12.15 123.22 13.92L123.38 13.92C124.01 12.17 125.75 11.03 127.99 11.03C130.83 11.03 132.8 12.91 132.8 16.22L132.8 26.5L128.57 26.5L128.57 17.06C128.57 15.36 127.55 14.51 126.2 14.51C124.66 14.51 123.76 15.58 123.76 17.17L123.76 26.5L119.65 26.5L119.65 16.97C119.65 15.47 118.72 14.51 117.33 14.51C115.91 14.51 114.84 15.64 114.84 17.33L114.84 26.5ZM144.95 24.38C144.21 25.8 142.75 26.78 140.49 26.78C137.58 26.78 135.42 25.25 135.42 22.23C135.42 18.82 138.14 17.81 141.16 17.53C143.81 17.27 144.86 17.14 144.86 16.15L144.86 16.1C144.86 14.84 144.03 14.12 142.59 14.12C141.07 14.12 140.16 14.86 139.87 15.88L135.96 15.56C136.55 12.78 138.95 11.03 142.61 11.03C146.01 11.03 149.1 12.56 149.1 16.19L149.1 26.5L145.08 26.5L145.08 24.38L144.95 24.38ZM88.63 23.11C90.15 23.11 91.55 22.04 91.54 19.99L91.54 11.22L95.78 11.22L95.78 26.5L91.71 26.5L91.71 23.72L91.55 23.72C90.87 25.51 89.22 26.69 86.92 26.69C83.84 26.69 81.76 24.52 81.75 20.94L81.75 11.22L85.98 11.22L85.98 20.19C85.99 21.99 87.03 23.11 88.63 23.11ZM68.83 22.09C68.83 23.25 69.76 23.86 71.07 23.86C72.93 23.86 74.25 22.64 74.25 21.03L74.25 19.41C73.74 19.75 72.23 19.97 71.31 20.1C69.82 20.31 68.83 20.9 68.83 22.09ZM139.47 22.09C139.47 23.25 140.4 23.86 141.71 23.86C143.57 23.86 144.89 22.64 144.89 21.03L144.89 19.41C144.38 19.75 142.87 19.97 141.95 20.1C140.46 20.31 139.47 20.9 139.47 22.09Z" fill="#000000" fill-opacity="1.000000" fill-rule="evenodd"/>
</svg>
