<svg width="124.000000" height="28.000000" viewBox="0 0 124 28" fill="none" xmlns="http://www.w3.org/2000/svg" xmlns:xlink="http://www.w3.org/1999/xlink">
	<desc>
			Created with Pixso.
	</desc>
	<defs/>
	<path id="🌯Lavash" d="M42.8 26.5L29.77 26.5L29.77 6.13L34.07 6.13L34.07 22.95L42.8 22.95L42.8 26.5ZM116.4 14.55C114.67 14.55 113.46 15.69 113.46 17.66L113.46 26.5L109.22 26.5L109.22 6.13L113.33 6.13L113.33 13.92L113.52 13.92C114.21 12.12 115.76 11.03 118.08 11.03C121.26 11.03 123.37 13.19 123.36 16.77L123.36 26.5L119.12 26.5L119.12 17.53C119.13 15.65 118.12 14.55 116.4 14.55ZM54.39 24.38C53.65 25.8 52.19 26.78 49.93 26.78C47.02 26.78 44.86 25.25 44.86 22.23C44.86 18.82 47.58 17.81 50.6 17.53C53.25 17.27 54.3 17.14 54.3 16.15L54.3 16.1C54.3 14.84 53.47 14.12 52.03 14.12C50.51 14.12 49.6 14.86 49.31 15.88L45.39 15.56C45.98 12.78 48.39 11.03 52.05 11.03C55.45 11.03 58.53 12.56 58.53 16.19L58.53 26.5L54.51 26.5L54.51 24.38L54.39 24.38ZM86.06 24.38C85.32 25.8 83.86 26.78 81.6 26.78C78.68 26.78 76.53 25.25 76.53 22.23C76.53 18.82 79.24 17.81 82.27 17.53C84.92 17.27 85.96 17.14 85.96 16.15L85.96 16.1C85.96 14.84 85.14 14.12 83.69 14.12C82.18 14.12 81.27 14.86 80.98 15.88L77.06 15.56C77.65 12.78 80.06 11.03 83.72 11.03C87.12 11.03 90.2 12.56 90.2 16.19L90.2 26.5L86.18 26.5L86.18 24.38L86.06 24.38ZM99.7 11.03C103.55 11.03 105.82 12.76 106.2 15.58L102.32 15.82C102.11 14.83 101.23 14.03 99.76 14.03C98.45 14.03 97.42 14.62 97.43 15.54C97.42 16.28 97.95 16.76 99.37 17.07L102.13 17.63C105.1 18.23 106.54 19.56 106.55 21.76C106.54 24.77 103.7 26.8 99.74 26.8C95.7 26.8 93.22 24.99 92.81 22.07L96.98 21.85C97.24 23.1 98.25 23.74 99.76 23.74C101.23 23.74 102.22 23.1 102.24 22.19C102.22 21.42 101.62 20.94 100.28 20.67L97.64 20.14C94.65 19.54 93.22 18.07 93.22 15.78C93.22 12.83 95.79 11.03 99.7 11.03ZM71.02 11.22L75.5 11.22L70.16 26.5L65.39 26.5L60.05 11.22L64.52 11.22L67.7 22.15L67.86 22.15L71.02 11.22ZM48.91 22.09C48.91 23.25 49.84 23.86 51.14 23.86C53 23.86 54.32 22.64 54.32 21.03L54.32 19.41C53.82 19.75 52.31 19.97 51.38 20.1C49.89 20.31 48.91 20.9 48.91 22.09ZM80.58 22.09C80.58 23.25 81.51 23.86 82.81 23.86C84.67 23.86 85.99 22.64 85.99 21.03L85.99 19.41C85.49 19.75 83.98 19.97 83.05 20.1C81.56 20.31 80.58 20.9 80.58 22.09Z" fill="#000000" fill-opacity="1.000000" fill-rule="evenodd"/>
</svg>
