<svg width="121.000000" height="33.000000" viewBox="0 0 121 33" fill="none" xmlns="http://www.w3.org/2000/svg" xmlns:xlink="http://www.w3.org/1999/xlink">
	<desc>
			Created with Pixso.
	</desc>
	<defs/>
	<path id="ðŸ”Burger" d="M38.47 26.5L29.77 26.5L29.77 6.13L37.92 6.13C42.41 6.13 44.68 8.3 44.68 11.35C44.68 13.75 43.12 15.25 41 15.73L41 15.93C43.31 16.04 45.47 17.85 45.47 20.87C45.47 24.11 43.04 26.5 38.47 26.5ZM34.07 9.61L34.07 14.66L37.26 14.66C39.02 14.66 40.33 13.68 40.33 12.06C40.33 10.59 39.25 9.61 37.34 9.61L34.07 9.61ZM69.84 26.5L65.6 26.5L65.6 11.22L69.71 11.22L69.71 13.89L69.86 13.89C70.42 12 71.83 11 73.53 11C73.97 11 74.49 11.07 74.87 11.16L74.87 14.91C74.47 14.79 73.66 14.68 73.08 14.68C71.21 14.68 69.84 15.97 69.84 17.85L69.84 26.5ZM115.03 26.5L110.79 26.5L110.79 11.22L114.9 11.22L114.9 13.89L115.06 13.89C115.62 12 117.02 11 118.73 11C119.16 11 119.68 11.07 120.06 11.16L120.06 14.91C119.66 14.79 118.86 14.68 118.27 14.68C116.4 14.68 115.03 15.97 115.03 17.85L115.03 26.5ZM90.68 26.65C90.68 30.55 87.57 32.54 83.21 32.54C79.1 32.54 76.74 30.69 76.23 28.29L80.15 27.76C80.5 28.68 81.44 29.5 83.31 29.5C85.15 29.5 86.49 28.68 86.49 26.58L86.49 23.79L86.31 23.79C85.75 25.05 84.39 26.28 81.96 26.28C78.51 26.28 75.76 23.91 75.76 18.83C75.76 13.63 78.6 11.03 81.95 11.03C84.5 11.03 85.75 12.54 86.31 13.79L86.47 13.79L86.47 11.22L90.68 11.22L90.68 26.65ZM107.94 22.12C107.35 24.96 104.8 26.8 101.02 26.8C96.31 26.8 93.44 23.77 93.44 18.93C93.44 14.22 96.35 11.03 100.85 11.03C104.88 11.03 108.03 13.59 108.03 18.78L108.03 19.94L97.62 19.94L97.62 19.95C97.62 22.23 98.97 23.63 101.09 23.63C102.5 23.63 103.59 23.02 104.02 21.86L107.94 22.12ZM55.07 23.11C56.59 23.11 57.99 22.04 57.98 19.99L57.98 11.22L62.22 11.22L62.22 26.5L58.15 26.5L58.15 23.72L57.99 23.72C57.31 25.51 55.66 26.69 53.36 26.69C50.29 26.69 48.2 24.52 48.19 20.94L48.19 11.22L52.43 11.22L52.43 20.19C52.43 21.99 53.47 23.11 55.07 23.11ZM100.92 14.18C99.04 14.18 97.72 15.58 97.62 17.31L104.04 17.31C104.03 15.5 102.76 14.18 100.92 14.18ZM80.09 18.81C80.09 21.44 81.22 23.1 83.3 23.1C85.34 23.1 86.51 21.5 86.51 18.81C86.51 16.13 85.36 14.4 83.3 14.4C81.2 14.4 80.09 16.21 80.09 18.81ZM34.07 17.57L34.07 22.97L37.58 22.97C39.99 22.97 41.03 21.97 41.03 20.44C41.03 18.76 39.75 17.57 37.68 17.57L34.07 17.57Z" fill="#000000" fill-opacity="1.000000" fill-rule="evenodd"/>
</svg>
