<svg width="181.000000" height="28.000000" viewBox="0 0 181 28" fill="none" xmlns="http://www.w3.org/2000/svg" xmlns:xlink="http://www.w3.org/1999/xlink">
	<desc>
			Created with Pixso.
	</desc>
	<defs/>
	<path id="ðŸšTamaddilar" d="M144.36 7.11C144.36 8.29 143.32 9.25 142.07 9.25C140.81 9.25 139.78 8.29 139.78 7.11C139.78 5.93 140.81 4.97 142.07 4.97C143.32 4.97 144.36 5.93 144.36 7.11ZM35.22 9.68L28.99 9.68L28.99 6.13L45.71 6.13L45.71 9.68L39.48 9.68L39.48 26.5L35.22 26.5L35.22 9.68ZM114.32 24.05C113.74 25.32 112.45 26.74 109.99 26.74C106.5 26.74 103.79 23.99 103.79 18.88C103.79 13.63 106.63 11.03 109.98 11.03C112.53 11.03 113.76 12.54 114.32 13.79L114.45 13.79L114.45 6.13L118.68 6.13L118.68 26.5L114.5 26.5L114.5 24.05L114.32 24.05ZM132.11 24.05C131.52 25.32 130.24 26.74 127.78 26.74C124.29 26.74 121.58 23.99 121.58 18.88C121.58 13.63 124.42 11.03 127.76 11.03C130.32 11.03 131.55 12.54 132.11 13.79L132.24 13.79L132.24 6.13L136.47 6.13L136.47 26.5L132.29 26.5L132.29 24.05L132.11 24.05ZM147.55 6.13L151.79 6.13L151.79 26.5L147.55 26.5L147.55 6.13ZM175.65 26.5L171.41 26.5L171.41 11.22L175.52 11.22L175.52 13.89L175.68 13.89C176.24 12 177.64 11 179.35 11C179.78 11 180.31 11.07 180.68 11.16L180.68 14.91C180.29 14.79 179.48 14.68 178.89 14.68C177.03 14.68 175.65 15.97 175.65 17.85L175.65 26.5ZM55.15 24.38C54.4 25.8 52.95 26.78 50.68 26.78C47.77 26.78 45.62 25.25 45.62 22.23C45.62 18.82 48.33 17.81 51.35 17.53C54.01 17.27 55.05 17.14 55.05 16.15L55.05 16.1C55.05 14.84 54.22 14.12 52.78 14.12C51.26 14.12 50.35 14.86 50.07 15.88L46.15 15.56C46.74 12.78 49.14 11.03 52.8 11.03C56.21 11.03 59.29 12.56 59.29 16.19L59.29 26.5L55.27 26.5L55.27 24.38L55.15 24.38ZM66.81 26.5L62.58 26.5L62.58 11.22L66.62 11.22L66.62 13.92L66.79 13.92C67.43 12.12 68.99 11.03 71.05 11.03C73.14 11.03 74.71 12.15 75.19 13.92L75.35 13.92C75.98 12.17 77.72 11.03 79.96 11.03C82.8 11.03 84.77 12.91 84.77 16.22L84.77 26.5L80.55 26.5L80.55 17.06C80.55 15.36 79.53 14.51 78.18 14.51C76.64 14.51 75.73 15.58 75.73 17.17L75.73 26.5L71.63 26.5L71.63 16.97C71.63 15.47 70.69 14.51 69.3 14.51C67.89 14.51 66.81 15.64 66.81 17.33L66.81 26.5ZM96.93 24.38C96.18 25.8 94.73 26.78 92.46 26.78C89.55 26.78 87.4 25.25 87.4 22.23C87.4 18.82 90.11 17.81 93.13 17.53C95.79 17.27 96.83 17.14 96.83 16.15L96.83 16.1C96.83 14.84 96.01 14.12 94.56 14.12C93.05 14.12 92.14 14.86 91.85 15.88L87.93 15.56C88.52 12.78 90.93 11.03 94.58 11.03C97.99 11.03 101.07 12.56 101.07 16.19L101.07 26.5L97.05 26.5L97.05 24.38L96.93 24.38ZM163.99 24.38C163.24 25.8 161.78 26.78 159.52 26.78C156.61 26.78 154.46 25.25 154.46 22.23C154.46 18.82 157.17 17.81 160.19 17.53C162.84 17.27 163.89 17.14 163.89 16.15L163.89 16.1C163.89 14.84 163.06 14.12 161.62 14.12C160.1 14.12 159.19 14.86 158.91 15.88L154.99 15.56C155.58 12.78 157.98 11.03 161.64 11.03C165.04 11.03 168.13 12.56 168.13 16.19L168.13 26.5L164.11 26.5L164.11 24.38L163.99 24.38ZM144.17 26.5L139.93 26.5L139.93 11.22L144.17 11.22L144.17 26.5ZM108.12 18.86C108.12 21.53 109.25 23.37 111.33 23.37C113.37 23.37 114.54 21.58 114.54 18.86C114.54 16.13 113.39 14.4 111.33 14.4C109.23 14.4 108.12 16.21 108.12 18.86ZM125.91 18.86C125.91 21.53 127.04 23.37 129.12 23.37C131.16 23.37 132.33 21.58 132.33 18.86C132.33 16.13 131.17 14.4 129.12 14.4C127.02 14.4 125.91 16.21 125.91 18.86ZM49.66 22.09C49.66 23.25 50.59 23.86 51.9 23.86C53.76 23.86 55.08 22.64 55.08 21.03L55.08 19.41C54.57 19.75 53.06 19.97 52.14 20.1C50.65 20.31 49.66 20.9 49.66 22.09ZM91.45 22.09C91.45 23.25 92.38 23.86 93.68 23.86C95.54 23.86 96.86 22.64 96.86 21.03L96.86 19.41C96.35 19.75 94.84 19.97 93.92 20.1C92.43 20.31 91.45 20.9 91.45 22.09ZM158.5 22.09C158.5 23.25 159.43 23.86 160.74 23.86C162.6 23.86 163.92 22.64 163.92 21.03L163.92 19.41C163.41 19.75 161.9 19.97 160.98 20.1C159.49 20.31 158.5 20.9 158.5 22.09Z" fill="#000000" fill-opacity="1.000000" fill-rule="evenodd"/>
</svg>
