<svg width="215.000000" height="28.000000" viewBox="0 0 215 28" fill="none" xmlns="http://www.w3.org/2000/svg" xmlns:xlink="http://www.w3.org/1999/xlink">
	<desc>
			Created with Pixso.
	</desc>
	<defs/>
	<path id="ðŸŸðŸ”ðŸ¥¤Maxi BOX" d="M148.04 7.11C148.04 8.29 147 9.25 145.75 9.25C144.49 9.25 143.46 8.29 143.46 7.11C143.46 5.93 144.49 4.97 145.75 4.97C147 4.97 148.04 5.93 148.04 7.11ZM185.48 5.85C190.88 5.85 195.02 9.65 195.02 16.32C195.02 22.97 190.88 26.78 185.48 26.78C180.05 26.78 175.95 22.95 175.95 16.32C175.95 9.65 180.05 5.85 185.48 5.85ZM85.77 26.5L85.77 6.13L91.08 6.13L96.68 19.82L96.92 19.82L102.53 6.13L107.84 6.13L107.84 26.5L103.66 26.5L103.66 13.24L103.49 13.24L98.22 26.39L95.38 26.39L90.11 13.19L89.94 13.19L89.94 26.5L85.77 26.5ZM166.51 26.5L157.8 26.5L157.8 6.13L165.96 6.13C170.45 6.13 172.72 8.3 172.72 11.35C172.72 13.75 171.15 15.25 169.04 15.73L169.04 15.93C171.35 16.04 173.51 17.85 173.51 20.87C173.51 24.11 171.08 26.5 166.51 26.5ZM196.42 6.13L201.3 6.13L205.41 13.07L205.57 13.07L209.7 6.13L214.56 6.13L208.34 16.32L214.7 26.5L209.74 26.5L205.57 19.54L205.41 19.54L201.23 26.5L196.3 26.5L202.68 16.32L196.42 6.13ZM162.11 9.61L162.11 14.66L165.3 14.66C167.06 14.66 168.37 13.68 168.37 12.06C168.37 10.59 167.29 9.61 165.38 9.61L162.11 9.61ZM185.48 22.97C188.61 22.97 190.66 20.63 190.66 16.32C190.66 12 188.61 9.66 185.48 9.66C182.35 9.66 180.31 12 180.31 16.32C180.31 20.63 182.35 22.97 185.48 22.97ZM120.12 24.38C119.37 25.8 117.91 26.78 115.65 26.78C112.74 26.78 110.59 25.25 110.59 22.23C110.59 18.82 113.3 17.81 116.32 17.53C118.97 17.27 120.02 17.14 120.02 16.15L120.02 16.1C120.02 14.84 119.19 14.12 117.75 14.12C116.23 14.12 115.32 14.86 115.04 15.88L111.12 15.56C111.71 12.78 114.11 11.03 117.77 11.03C121.18 11.03 124.26 12.56 124.26 16.19L124.26 26.5L120.24 26.5L120.24 24.38L120.12 24.38ZM126.71 11.22L131.09 11.22L133.89 16.56L136.77 11.22L141.11 11.22L136.68 18.86L141.23 26.5L136.9 26.5L133.89 21.22L130.93 26.5L126.55 26.5L131.09 18.86L126.71 11.22ZM147.85 26.5L143.61 26.5L143.61 11.22L147.85 11.22L147.85 26.5ZM162.11 17.57L162.11 22.97L165.62 22.97C168.02 22.97 169.07 21.97 169.07 20.44C169.07 18.76 167.78 17.57 165.72 17.57L162.11 17.57ZM114.63 22.09C114.63 23.25 115.56 23.86 116.87 23.86C118.73 23.86 120.05 22.64 120.05 21.03L120.05 19.41C119.54 19.75 118.03 19.97 117.11 20.1C115.62 20.31 114.63 20.9 114.63 22.09Z" fill="#000000" fill-opacity="1.000000" fill-rule="evenodd"/>
</svg>
