<svg width="149.000000" height="28.000000" viewBox="0 0 149 28" fill="none" xmlns="http://www.w3.org/2000/svg" xmlns:xlink="http://www.w3.org/1999/xlink">
	<desc>
			Created with Pixso.
	</desc>
	<defs/>
	<path id="ðŸŸGazaklar" d="M47.64 12.71L43.27 12.71C42.72 10.81 41.22 9.66 39 9.66C35.89 9.66 33.77 12.06 33.77 16.3C33.77 20.55 35.81 22.97 39.04 22.97C41.91 22.97 43.63 21.36 43.68 18.84L39.31 18.84L39.31 15.6L47.83 15.6L47.83 18.16C47.83 23.52 44.16 26.78 39.02 26.78C33.29 26.78 29.41 22.78 29.41 16.33C29.41 9.73 33.55 5.85 38.93 5.85C43.53 5.85 47.09 8.69 47.64 12.71ZM103.72 26.5L99.48 26.5L99.48 6.13L103.72 6.13L103.72 17.02L103.95 17.02L108.84 11.22L113.7 11.22L108.04 17.83L113.99 26.5L109.03 26.5L104.86 20.34L103.72 21.64L103.72 26.5ZM115.77 6.13L120.01 6.13L120.01 26.5L115.77 26.5L115.77 6.13ZM143.87 26.5L139.64 26.5L139.64 11.22L143.74 11.22L143.74 13.89L143.9 13.89C144.46 12 145.86 11 147.57 11C148 11 148.53 11.07 148.91 11.16L148.91 14.91C148.51 14.79 147.7 14.68 147.11 14.68C145.25 14.68 143.87 15.97 143.87 17.85L143.87 26.5ZM59.8 24.38C59.06 25.8 57.6 26.78 55.34 26.78C52.42 26.78 50.27 25.25 50.27 22.23C50.27 18.82 52.98 17.81 56.01 17.53C58.66 17.27 59.7 17.14 59.7 16.15L59.7 16.1C59.7 14.84 58.88 14.12 57.43 14.12C55.92 14.12 55.01 14.86 54.72 15.88L50.8 15.56C51.39 12.78 53.8 11.03 57.46 11.03C60.86 11.03 63.94 12.56 63.94 16.19L63.94 26.5L59.92 26.5L59.92 24.38L59.8 24.38ZM92.06 24.38C91.31 25.8 89.85 26.78 87.59 26.78C84.68 26.78 82.53 25.25 82.53 22.23C82.53 18.82 85.24 17.81 88.26 17.53C90.91 17.27 91.96 17.14 91.96 16.15L91.96 16.1C91.96 14.84 91.13 14.12 89.69 14.12C88.17 14.12 87.26 14.86 86.98 15.88L83.06 15.56C83.65 12.78 86.05 11.03 89.71 11.03C93.12 11.03 96.2 12.56 96.2 16.19L96.2 26.5L92.18 26.5L92.18 24.38L92.06 24.38ZM132.21 24.38C131.46 25.8 130 26.78 127.74 26.78C124.83 26.78 122.68 25.25 122.68 22.23C122.68 18.82 125.39 17.81 128.41 17.53C131.07 17.27 132.11 17.14 132.11 16.15L132.11 16.1C132.11 14.84 131.28 14.12 129.84 14.12C128.32 14.12 127.41 14.86 127.13 15.88L123.21 15.56C123.8 12.78 126.2 11.03 129.86 11.03C133.27 11.03 136.35 12.56 136.35 16.19L136.35 26.5L132.33 26.5L132.33 24.38L132.21 24.38ZM79.98 26.5L67.15 26.5L67.15 23.97L74.63 14.71L74.63 14.6L67.41 14.6L67.41 11.22L79.73 11.22L79.73 13.98L72.71 23L72.71 23.11L79.98 23.11L79.98 26.5ZM54.32 22.09C54.32 23.25 55.25 23.86 56.55 23.86C58.41 23.86 59.73 22.64 59.73 21.03L59.73 19.41C59.23 19.75 57.72 19.97 56.79 20.1C55.3 20.31 54.32 20.9 54.32 22.09ZM86.57 22.09C86.57 23.25 87.5 23.86 88.81 23.86C90.67 23.86 91.99 22.64 91.99 21.03L91.99 19.41C91.48 19.75 89.97 19.97 89.05 20.1C87.56 20.31 86.57 20.9 86.57 22.09ZM126.72 22.09C126.72 23.25 127.65 23.86 128.96 23.86C130.82 23.86 132.14 22.64 132.14 21.03L132.14 19.41C131.63 19.75 130.12 19.97 129.2 20.1C127.71 20.31 126.72 20.9 126.72 22.09Z" fill="#000000" fill-opacity="1.000000" fill-rule="evenodd"/>
</svg>
