<svg width="156.000000" height="28.000000" viewBox="0 0 156 28" fill="none" xmlns="http://www.w3.org/2000/svg" xmlns:xlink="http://www.w3.org/1999/xlink">
	<desc>
			Created with Pixso.
	</desc>
	<defs/>
	<path id="ðŸ°Desertlar" d="M46.94 16.3C46.94 22.66 43.19 26.5 36.98 26.5L29.77 26.5L29.77 6.13L37.05 6.13C43.19 6.13 46.94 9.95 46.94 16.3ZM122.65 6.13L126.89 6.13L126.89 26.5L122.65 26.5L122.65 6.13ZM116.71 11.22L119.58 11.22L119.58 14.4L116.71 14.4L116.71 21.8C116.71 22.97 117.29 23.3 118.14 23.3C118.54 23.3 118.98 23.19 119.19 23.15L119.86 26.3C119.43 26.45 118.65 26.67 117.56 26.71C114.49 26.83 112.45 25.35 112.48 22.36L112.48 14.4L110.38 14.4L110.38 11.22L112.48 11.22L112.48 7.57L116.71 7.57L116.71 11.22ZM34.07 9.82L34.07 22.8L36.81 22.8C40.63 22.8 42.65 20.83 42.65 16.3C42.65 11.77 40.63 9.82 36.81 9.82L34.07 9.82ZM103.48 26.5L99.25 26.5L99.25 11.22L103.35 11.22L103.35 13.89L103.51 13.89C104.07 12 105.47 11 107.18 11C107.61 11 108.14 11.07 108.52 11.16L108.52 14.91C108.12 14.79 107.31 14.68 106.72 14.68C104.86 14.68 103.48 15.97 103.48 17.85L103.48 26.5ZM150.75 26.5L146.52 26.5L146.52 11.22L150.62 11.22L150.62 13.89L150.78 13.89C151.34 12 152.74 11 154.45 11C154.88 11 155.41 11.07 155.78 11.16L155.78 14.91C155.39 14.79 154.58 14.68 153.99 14.68C152.13 14.68 150.75 15.97 150.75 17.85L150.75 26.5ZM63.93 22.12C63.34 24.96 60.79 26.8 57.01 26.8C52.3 26.8 49.43 23.77 49.43 18.93C49.43 14.22 52.34 11.03 56.84 11.03C60.88 11.03 64.02 13.59 64.02 18.78L64.02 19.94L53.62 19.94L53.62 19.95C53.62 22.23 54.96 23.63 57.08 23.63C58.49 23.63 59.58 23.02 60.01 21.86L63.93 22.12ZM72.99 11.03C76.84 11.03 79.11 12.76 79.49 15.58L75.61 15.82C75.4 14.83 74.53 14.03 73.06 14.03C71.74 14.03 70.71 14.62 70.72 15.54C70.71 16.28 71.24 16.76 72.66 17.07L75.42 17.63C78.39 18.23 79.83 19.56 79.84 21.76C79.83 24.77 76.99 26.8 73.04 26.8C68.99 26.8 66.51 24.99 66.1 22.07L70.27 21.85C70.53 23.1 71.54 23.74 73.05 23.74C74.53 23.74 75.51 23.1 75.53 22.19C75.51 21.42 74.91 20.94 73.58 20.67L70.93 20.14C67.94 19.54 66.51 18.07 66.51 15.78C66.51 12.83 69.08 11.03 72.99 11.03ZM96.4 22.12C95.8 24.96 93.25 26.8 89.47 26.8C84.77 26.8 81.9 23.77 81.9 18.93C81.9 14.22 84.81 11.03 89.31 11.03C93.34 11.03 96.48 13.59 96.48 18.78L96.48 19.94L86.08 19.94L86.08 19.95C86.08 22.23 87.43 23.63 89.55 23.63C90.95 23.63 92.05 23.02 92.48 21.86L96.4 22.12ZM139.09 24.38C138.34 25.8 136.89 26.78 134.62 26.78C131.71 26.78 129.56 25.25 129.56 22.23C129.56 18.82 132.27 17.81 135.29 17.53C137.95 17.27 138.99 17.14 138.99 16.15L138.99 16.1C138.99 14.84 138.16 14.12 136.72 14.12C135.2 14.12 134.3 14.86 134.01 15.88L130.09 15.56C130.68 12.78 133.09 11.03 136.74 11.03C140.15 11.03 143.23 12.56 143.23 16.19L143.23 26.5L139.21 26.5L139.21 24.38L139.09 24.38ZM56.91 14.18C55.03 14.18 53.71 15.58 53.62 17.31L60.03 17.31C60.02 15.5 58.75 14.18 56.91 14.18ZM89.37 14.18C87.5 14.18 86.18 15.58 86.08 17.31L92.5 17.31C92.49 15.5 91.21 14.18 89.37 14.18ZM133.61 22.09C133.61 23.25 134.53 23.86 135.84 23.86C137.7 23.86 139.02 22.64 139.02 21.03L139.02 19.41C138.51 19.75 137 19.97 136.08 20.1C134.59 20.31 133.61 20.9 133.61 22.09Z" fill="#000000" fill-opacity="1.000000" fill-rule="evenodd"/>
</svg>
