<svg width="203.000000" height="28.000000" viewBox="0 0 203 28" fill="none" xmlns="http://www.w3.org/2000/svg" xmlns:xlink="http://www.w3.org/1999/xlink">
	<desc>
			Created with Pixso.
	</desc>
	<defs/>
	<path id="ðŸ±Donar kebab" d="M46.94 16.3C46.94 22.66 43.19 26.5 36.98 26.5L29.77 26.5L29.77 6.13L37.05 6.13C43.19 6.13 46.94 9.95 46.94 16.3ZM123.21 26.5L118.91 26.5L118.91 6.13L123.21 6.13L123.21 15.11L123.48 15.11L130.81 6.13L135.97 6.13L128.41 15.25L136.06 26.5L130.91 26.5L125.33 18.12L123.21 20.71L123.21 26.5ZM158.01 26.5L153.84 26.5L153.84 6.13L158.08 6.13L158.08 13.79L158.2 13.79C158.77 12.54 159.99 11.03 162.55 11.03C165.9 11.03 168.73 13.63 168.73 18.88C168.73 23.99 166.02 26.74 162.54 26.74C160.07 26.74 158.79 25.32 158.2 24.05L158.01 24.05L158.01 26.5ZM192.05 26.5L187.87 26.5L187.87 6.13L192.11 6.13L192.11 13.79L192.23 13.79C192.8 12.54 194.02 11.03 196.58 11.03C199.93 11.03 202.77 13.63 202.77 18.88C202.77 23.99 200.05 26.74 196.57 26.74C194.11 26.74 192.82 25.32 192.23 24.05L192.05 24.05L192.05 26.5ZM34.07 9.82L34.07 22.8L36.81 22.8C40.63 22.8 42.65 20.83 42.65 16.3C42.65 11.77 40.63 9.82 36.81 9.82L34.07 9.82ZM105.13 26.5L100.89 26.5L100.89 11.22L105 11.22L105 13.89L105.15 13.89C105.71 12 107.11 11 108.82 11C109.25 11 109.78 11.07 110.16 11.16L110.16 14.91C109.76 14.79 108.95 14.68 108.37 14.68C106.5 14.68 105.13 15.97 105.13 17.85L105.13 26.5ZM64.46 18.92C64.46 23.62 61.59 26.8 56.95 26.8C52.32 26.8 49.43 23.62 49.43 18.92C49.43 14.18 52.32 11.03 56.95 11.03C61.59 11.03 64.46 14.18 64.46 18.92ZM74.36 14.55C72.65 14.55 71.47 15.69 71.47 17.66L71.47 26.5L67.23 26.5L67.23 11.22L71.27 11.22L71.27 13.92L71.45 13.92C72.13 12.14 73.77 11.03 76.04 11.03C79.22 11.03 81.31 13.21 81.31 16.77L81.31 26.5L77.07 26.5L77.07 17.53C77.09 15.66 76.06 14.55 74.36 14.55ZM93.46 24.38C92.71 25.8 91.26 26.78 88.99 26.78C86.08 26.78 83.93 25.25 83.93 22.23C83.93 18.82 86.64 17.81 89.66 17.53C92.32 17.27 93.36 17.14 93.36 16.15L93.36 16.1C93.36 14.84 92.53 14.12 91.09 14.12C89.58 14.12 88.67 14.86 88.38 15.88L84.46 15.56C85.05 12.78 87.46 11.03 91.11 11.03C94.52 11.03 97.6 12.56 97.6 16.19L97.6 26.5L93.58 26.5L93.58 24.38L93.46 24.38ZM150.9 22.12C150.31 24.96 147.76 26.8 143.98 26.8C139.28 26.8 136.41 23.77 136.41 18.93C136.41 14.22 139.32 11.03 143.82 11.03C147.85 11.03 150.99 13.59 150.99 18.78L150.99 19.94L140.59 19.94L140.59 19.95C140.59 22.23 141.94 23.63 144.05 23.63C145.46 23.63 146.56 23.02 146.99 21.86L150.9 22.12ZM180.36 24.38C179.62 25.8 178.16 26.78 175.9 26.78C172.99 26.78 170.83 25.25 170.83 22.23C170.83 18.82 173.55 17.81 176.57 17.53C179.22 17.27 180.27 17.14 180.27 16.15L180.27 16.1C180.27 14.84 179.44 14.12 178 14.12C176.48 14.12 175.57 14.86 175.28 15.88L171.37 15.56C171.95 12.78 174.36 11.03 178.02 11.03C181.42 11.03 184.5 12.56 184.5 16.19L184.5 26.5L180.48 26.5L180.48 24.38L180.36 24.38ZM143.88 14.18C142 14.18 140.68 15.58 140.59 17.31L147.01 17.31C146.99 15.5 145.72 14.18 143.88 14.18ZM53.74 18.89C53.74 21.55 54.83 23.51 56.97 23.51C59.07 23.51 60.16 21.55 60.16 18.89C60.16 16.22 59.07 14.25 56.97 14.25C54.83 14.25 53.74 16.22 53.74 18.89ZM161.19 14.4C159.13 14.4 157.98 16.13 157.98 18.86C157.98 21.58 159.16 23.37 161.19 23.37C163.27 23.37 164.41 21.53 164.41 18.86C164.41 16.21 163.29 14.4 161.19 14.4ZM195.23 14.4C193.17 14.4 192.02 16.13 192.02 18.86C192.02 21.58 193.19 23.37 195.23 23.37C197.31 23.37 198.44 21.53 198.44 18.86C198.44 16.21 197.33 14.4 195.23 14.4ZM87.98 22.09C87.98 23.25 88.91 23.86 90.21 23.86C92.07 23.86 93.39 22.64 93.39 21.03L93.39 19.41C92.88 19.75 91.37 19.97 90.45 20.1C88.96 20.31 87.98 20.9 87.98 22.09ZM174.88 22.09C174.88 23.25 175.81 23.86 177.11 23.86C178.97 23.86 180.29 22.64 180.29 21.03L180.29 19.41C179.79 19.75 178.28 19.97 177.35 20.1C175.86 20.31 174.88 20.9 174.88 22.09Z" fill="#000000" fill-opacity="1.000000" fill-rule="evenodd"/>
</svg>
