<svg width="181.000000" height="33.000000" viewBox="0 0 181 33" fill="none" xmlns="http://www.w3.org/2000/svg" xmlns:xlink="http://www.w3.org/1999/xlink">
	<desc>
			Created with Pixso.
	</desc>
	<defs/>
	<path id="🎉 Aksiya 2+1" d="M93.56 7.11C93.56 8.29 92.52 9.25 91.27 9.25C90.01 9.25 88.98 8.29 88.98 7.11C88.98 5.93 90.01 4.97 91.27 4.97C92.52 4.97 93.56 5.93 93.56 7.11ZM149.95 26.5L135.43 26.5L135.43 23.39L142.68 16.68C144.53 14.9 145.53 13.79 145.53 12.17C145.53 10.38 144.19 9.26 142.4 9.26C140.54 9.26 139.31 10.46 139.32 12.41L135.23 12.41C135.22 8.41 138.16 5.85 142.43 5.85C146.8 5.85 149.68 8.35 149.68 11.88C149.68 14.2 148.55 16.1 144.37 19.93L141.4 22.84L141.4 22.97L149.95 22.97L149.95 26.5ZM41.28 21.85L39.77 26.5L35.15 26.5L42.19 6.13L47.73 6.13L54.75 26.5L50.14 26.5L48.62 21.85L41.28 21.85ZM61.36 26.5L57.12 26.5L57.12 6.13L61.36 6.13L61.36 17.02L61.58 17.02L66.48 11.22L71.34 11.22L65.67 17.83L71.62 26.5L66.67 26.5L62.5 20.34L61.36 21.64L61.36 26.5ZM176.91 6.13L180.96 6.13L180.96 26.5L176.66 26.5L176.66 10.22L176.54 10.22L171.87 13.14L171.87 9.32L176.91 6.13ZM162.71 23.39L159.16 23.39L159.16 18.13L153.89 18.13L153.89 14.57L159.16 14.57L159.16 9.32L162.71 9.32L162.71 14.57L167.98 14.57L167.98 18.13L162.71 18.13L162.71 23.39ZM44.88 10.79L42.37 18.49L47.54 18.49L45.04 10.79L44.88 10.79ZM79.61 11.03C83.47 11.03 85.74 12.76 86.11 15.58L82.24 15.82C82.02 14.83 81.15 14.03 79.68 14.03C78.37 14.03 77.33 14.62 77.34 15.54C77.33 16.28 77.86 16.76 79.28 17.07L82.04 17.63C85.01 18.23 86.45 19.56 86.46 21.76C86.45 24.77 83.62 26.8 79.66 26.8C75.61 26.8 73.13 24.99 72.73 22.07L76.9 21.85C77.16 23.1 78.16 23.74 79.67 23.74C81.15 23.74 82.13 23.1 82.15 22.19C82.13 21.42 81.53 20.94 80.2 20.67L77.55 20.14C74.57 19.54 73.13 18.07 73.14 15.78C73.13 12.83 75.7 11.03 79.61 11.03ZM121.55 24.38C120.8 25.8 119.35 26.78 117.08 26.78C114.17 26.78 112.02 25.25 112.02 22.23C112.02 18.82 114.73 17.81 117.75 17.53C120.41 17.27 121.45 17.14 121.45 16.15L121.45 16.1C121.45 14.84 120.62 14.12 119.18 14.12C117.66 14.12 116.76 14.86 116.47 15.88L112.55 15.56C113.14 12.78 115.55 11.03 119.2 11.03C122.61 11.03 125.69 12.56 125.69 16.19L125.69 26.5L121.67 26.5L121.67 24.38L121.55 24.38ZM93.37 26.5L89.13 26.5L89.13 11.22L93.37 11.22L93.37 26.5ZM105.06 28.14C104.19 30.61 102.52 32.22 99.37 32.22C98.3 32.22 97.31 32.05 96.7 31.79L97.66 28.62C99.15 29.08 100.21 29.01 100.77 27.58L101.02 26.93L95.54 11.22L99.99 11.22L103.16 22.44L103.31 22.44L106.51 11.22L110.99 11.22L105.06 28.14ZM116.07 22.09C116.07 23.25 117 23.86 118.3 23.86C120.16 23.86 121.48 22.64 121.48 21.03L121.48 19.41C120.97 19.75 119.46 19.97 118.54 20.1C117.05 20.31 116.07 20.9 116.07 22.09Z" fill="#000000" fill-opacity="1.000000" fill-rule="evenodd"/>
</svg>
