<svg width="170.000000" height="28.000000" viewBox="0 0 170 28" fill="none" xmlns="http://www.w3.org/2000/svg" xmlns:xlink="http://www.w3.org/1999/xlink">
	<desc>
			Created with Pixso.
	</desc>
	<defs/>
	<path id="🥤Ichimliklar" d="M75.89 7.11C75.89 8.29 74.86 9.25 73.6 9.25C72.34 9.25 71.31 8.29 71.31 7.11C71.31 5.93 72.34 4.97 73.6 4.97C74.86 4.97 75.89 5.93 75.89 7.11ZM116.66 7.11C116.66 8.29 115.62 9.25 114.37 9.25C113.11 9.25 112.08 8.29 112.08 7.11C112.08 5.93 113.11 4.97 114.37 4.97C115.62 4.97 116.66 5.93 116.66 7.11ZM29.77 6.13L34.07 6.13L34.07 26.5L29.77 26.5L29.77 6.13ZM61.16 14.55C59.43 14.55 58.23 15.69 58.22 17.66L58.22 26.5L53.98 26.5L53.98 6.13L58.1 6.13L58.1 13.92L58.28 13.92C58.97 12.12 60.53 11.03 62.84 11.03C66.03 11.03 68.14 13.19 68.13 16.77L68.13 26.5L63.89 26.5L63.89 17.53C63.9 15.65 62.89 14.55 61.16 14.55ZM104.62 6.13L108.85 6.13L108.85 26.5L104.62 26.5L104.62 6.13ZM124.09 26.5L119.85 26.5L119.85 6.13L124.09 6.13L124.09 17.02L124.31 17.02L129.21 11.22L134.07 11.22L128.4 17.83L134.35 26.5L129.4 26.5L125.23 20.34L124.09 21.64L124.09 26.5ZM136.14 6.13L140.37 6.13L140.37 26.5L136.14 26.5L136.14 6.13ZM164.24 26.5L160 26.5L160 11.22L164.11 11.22L164.11 13.89L164.26 13.89C164.83 12 166.23 11 167.94 11C168.37 11 168.89 11.07 169.27 11.16L169.27 14.91C168.87 14.79 168.07 14.68 167.48 14.68C165.61 14.68 164.24 15.97 164.24 17.85L164.24 26.5ZM51.27 20.9C51.06 24.41 48.51 26.8 44.44 26.8C39.74 26.8 36.92 23.56 36.92 18.92C36.92 14.24 39.79 11.03 44.42 11.03C48.41 11.03 51.08 13.34 51.27 16.87L47.27 16.87C47.03 15.35 46.04 14.33 44.49 14.33C42.52 14.33 41.23 15.97 41.23 18.86C41.23 21.79 42.52 23.44 44.49 23.44C45.94 23.44 47.01 22.53 47.27 20.9L51.27 20.9ZM83.32 26.5L79.08 26.5L79.08 11.22L83.12 11.22L83.12 13.92L83.3 13.92C83.93 12.12 85.49 11.03 87.56 11.03C89.65 11.03 91.22 12.15 91.7 13.92L91.86 13.92C92.49 12.17 94.23 11.03 96.47 11.03C99.31 11.03 101.28 12.91 101.28 16.22L101.28 26.5L97.05 26.5L97.05 17.06C97.05 15.36 96.03 14.51 94.68 14.51C93.14 14.51 92.24 15.58 92.24 17.17L92.24 26.5L88.13 26.5L88.13 16.97C88.13 15.47 87.2 14.51 85.81 14.51C84.39 14.51 83.32 15.64 83.32 17.33L83.32 26.5ZM152.57 24.38C151.83 25.8 150.37 26.78 148.11 26.78C145.19 26.78 143.04 25.25 143.04 22.23C143.04 18.82 145.75 17.81 148.78 17.53C151.43 17.27 152.47 17.14 152.47 16.15L152.47 16.1C152.47 14.84 151.65 14.12 150.21 14.12C148.69 14.12 147.78 14.86 147.49 15.88L143.57 15.56C144.16 12.78 146.57 11.03 150.23 11.03C153.63 11.03 156.71 12.56 156.71 16.19L156.71 26.5L152.69 26.5L152.69 24.38L152.57 24.38ZM75.7 26.5L71.46 26.5L71.46 11.22L75.7 11.22L75.7 26.5ZM116.47 26.5L112.23 26.5L112.23 11.22L116.47 11.22L116.47 26.5ZM147.09 22.09C147.09 23.25 148.02 23.86 149.32 23.86C151.18 23.86 152.5 22.64 152.5 21.03L152.5 19.41C152 19.75 150.49 19.97 149.56 20.1C148.07 20.31 147.09 20.9 147.09 22.09Z" fill="#000000" fill-opacity="1.000000" fill-rule="evenodd"/>
</svg>
