<svg width="229.000000" height="28.000000" viewBox="0 0 229 28" fill="none" xmlns="http://www.w3.org/2000/svg" xmlns:xlink="http://www.w3.org/1999/xlink">
	<desc>
			Created with Pixso.
	</desc>
	<defs/>
	<path id="🥪Klab-Sendvich" d="M194.88 7.11C194.88 8.29 193.84 9.25 192.58 9.25C191.32 9.25 190.29 8.29 190.29 7.11C190.29 5.93 191.32 4.97 192.58 4.97C193.84 4.97 194.88 5.93 194.88 7.11ZM119.03 11.99L114.9 11.99C114.74 10.39 113.48 9.45 111.42 9.45C109.31 9.45 108.15 10.42 108.15 11.73C108.12 13.19 109.6 13.85 111.37 14.25L113.2 14.69C116.74 15.49 119.3 17.29 119.3 20.68C119.3 24.41 116.37 26.78 111.4 26.78C106.46 26.78 103.31 24.51 103.2 20.1L107.36 20.1C107.5 22.14 109.11 23.17 111.35 23.17C113.54 23.17 114.95 22.16 114.96 20.67C114.95 19.3 113.72 18.66 111.5 18.12L109.28 17.57C105.84 16.74 103.72 15.02 103.73 12.02C103.72 8.32 106.98 5.85 111.45 5.85C115.98 5.85 118.97 8.36 119.03 11.99ZM34.07 26.5L29.77 26.5L29.77 6.13L34.07 6.13L34.07 15.11L34.34 15.11L41.67 6.13L46.83 6.13L39.27 15.25L46.92 26.5L41.77 26.5L36.19 18.12L34.07 20.71L34.07 26.5ZM48.99 6.13L53.23 6.13L53.23 26.5L48.99 26.5L48.99 6.13ZM77.12 26.5L72.94 26.5L72.94 6.13L77.18 6.13L77.18 13.79L77.3 13.79C77.87 12.54 79.09 11.03 81.65 11.03C85 11.03 87.83 13.63 87.83 18.88C87.83 23.99 85.12 26.74 81.64 26.74C79.17 26.74 77.89 25.32 77.3 24.05L77.12 24.05L77.12 26.5ZM166.22 24.05C165.63 25.32 164.34 26.74 161.88 26.74C158.4 26.74 155.68 23.99 155.68 18.88C155.68 13.63 158.52 11.03 161.87 11.03C164.43 11.03 165.65 12.54 166.22 13.79L166.35 13.79L166.35 6.13L170.57 6.13L170.57 26.5L166.4 26.5L166.4 24.05L166.22 24.05ZM221.69 14.55C219.96 14.55 218.75 15.69 218.75 17.66L218.75 26.5L214.51 26.5L214.51 6.13L218.62 6.13L218.62 13.92L218.81 13.92C219.5 12.12 221.05 11.03 223.37 11.03C226.55 11.03 228.66 13.19 228.65 16.77L228.65 26.5L224.41 26.5L224.41 17.53C224.42 15.65 223.41 14.55 221.69 14.55ZM65.43 24.38C64.68 25.8 63.23 26.78 60.96 26.78C58.05 26.78 55.9 25.25 55.9 22.23C55.9 18.82 58.61 17.81 61.63 17.53C64.29 17.27 65.33 17.14 65.33 16.15L65.33 16.1C65.33 14.84 64.51 14.12 63.06 14.12C61.55 14.12 60.64 14.86 60.35 15.88L56.43 15.56C57.02 12.78 59.43 11.03 63.08 11.03C66.49 11.03 69.57 12.56 69.57 16.19L69.57 26.5L65.55 26.5L65.55 24.38L65.43 24.38ZM135.99 22.12C135.39 24.96 132.85 26.8 129.06 26.8C124.36 26.8 121.49 23.77 121.49 18.93C121.49 14.22 124.4 11.03 128.9 11.03C132.93 11.03 136.08 13.59 136.08 18.78L136.08 19.94L125.67 19.94L125.67 19.95C125.67 22.23 127.02 23.63 129.14 23.63C130.55 23.63 131.64 23.02 132.07 21.86L135.99 22.12ZM145.97 14.55C144.26 14.55 143.09 15.69 143.08 17.66L143.08 26.5L138.84 26.5L138.84 11.22L142.88 11.22L142.88 13.92L143.06 13.92C143.74 12.14 145.38 11.03 147.65 11.03C150.83 11.03 152.92 13.21 152.92 16.77L152.92 26.5L148.68 26.5L148.68 17.53C148.7 15.66 147.67 14.55 145.97 14.55ZM211.79 20.9C211.58 24.41 209.03 26.8 204.97 26.8C200.26 26.8 197.45 23.56 197.45 18.92C197.45 14.24 200.31 11.03 204.95 11.03C208.93 11.03 211.6 13.34 211.79 16.87L207.79 16.87C207.56 15.35 206.57 14.33 205.01 14.33C203.05 14.33 201.75 15.97 201.75 18.86C201.75 21.79 203.04 23.44 205.01 23.44C206.46 23.44 207.54 22.53 207.79 20.9L211.79 20.9ZM183.79 11.22L188.28 11.22L182.94 26.5L178.17 26.5L172.83 11.22L177.3 11.22L180.47 22.15L180.64 22.15L183.79 11.22ZM194.68 26.5L190.45 26.5L190.45 11.22L194.68 11.22L194.68 26.5ZM128.97 14.18C127.09 14.18 125.77 15.58 125.67 17.31L132.09 17.31C132.08 15.5 130.81 14.18 128.97 14.18ZM80.29 14.4C78.24 14.4 77.08 16.13 77.08 18.86C77.08 21.58 78.26 23.37 80.29 23.37C82.37 23.37 83.51 21.53 83.51 18.86C83.51 16.21 82.39 14.4 80.29 14.4ZM160.01 18.86C160.01 21.53 161.14 23.37 163.22 23.37C165.26 23.37 166.44 21.58 166.44 18.86C166.44 16.13 165.28 14.4 163.22 14.4C161.12 14.4 160.01 16.21 160.01 18.86ZM90.88 16.45L100.16 16.45L100.16 19.82L90.88 19.82L90.88 16.45ZM59.95 22.09C59.95 23.25 60.88 23.86 62.18 23.86C64.04 23.86 65.36 22.64 65.36 21.03L65.36 19.41C64.85 19.75 63.34 19.97 62.42 20.1C60.93 20.31 59.95 20.9 59.95 22.09Z" fill="#000000" fill-opacity="1.000000" fill-rule="evenodd"/>
</svg>
