<svg width="132.000000" height="28.000000" viewBox="0 0 132 28" fill="none" xmlns="http://www.w3.org/2000/svg" xmlns:xlink="http://www.w3.org/1999/xlink">
	<desc>
			Created with Pixso.
	</desc>
	<defs/>
	<path id="🥫Souslar" d="M44.94 11.99L40.81 11.99C40.66 10.39 39.39 9.45 37.33 9.45C35.22 9.45 34.06 10.42 34.06 11.73C34.03 13.19 35.51 13.85 37.29 14.25L39.11 14.69C42.65 15.49 45.21 17.29 45.21 20.68C45.21 24.41 42.28 26.78 37.31 26.78C32.37 26.78 29.22 24.51 29.11 20.1L33.27 20.1C33.42 22.14 35.02 23.17 37.26 23.17C39.45 23.17 40.86 22.16 40.87 20.67C40.86 19.3 39.63 18.66 37.41 18.12L35.19 17.57C31.75 16.74 29.64 15.02 29.64 12.02C29.63 8.32 32.9 5.85 37.36 5.85C41.89 5.85 44.88 8.36 44.94 11.99ZM98.34 6.13L102.58 6.13L102.58 26.5L98.34 26.5L98.34 6.13ZM126.44 26.5L122.21 26.5L122.21 11.22L126.31 11.22L126.31 13.89L126.47 13.89C127.03 12 128.43 11 130.14 11C130.57 11 131.1 11.07 131.47 11.16L131.47 14.91C131.08 14.79 130.27 14.68 129.68 14.68C127.82 14.68 126.44 15.97 126.44 17.85L126.44 26.5ZM62.44 18.92C62.44 23.62 59.56 26.8 54.92 26.8C50.29 26.8 47.4 23.62 47.4 18.92C47.4 14.18 50.29 11.03 54.92 11.03C59.56 11.03 62.44 14.18 62.44 18.92ZM88.82 11.03C92.67 11.03 94.94 12.76 95.32 15.58L91.44 15.82C91.23 14.83 90.36 14.03 88.89 14.03C87.57 14.03 86.54 14.62 86.55 15.54C86.54 16.28 87.07 16.76 88.49 17.07L91.25 17.63C94.22 18.23 95.66 19.56 95.67 21.76C95.66 24.77 92.82 26.8 88.87 26.8C84.82 26.8 82.34 24.99 81.93 22.07L86.1 21.85C86.36 23.1 87.37 23.74 88.88 23.74C90.36 23.74 91.34 23.1 91.36 22.19C91.34 21.42 90.74 20.94 89.41 20.67L86.76 20.14C83.77 19.54 82.34 18.07 82.34 15.78C82.34 12.83 84.91 11.03 88.82 11.03ZM114.78 24.38C114.03 25.8 112.58 26.78 110.31 26.78C107.4 26.78 105.25 25.25 105.25 22.23C105.25 18.82 107.96 17.81 110.98 17.53C113.63 17.27 114.68 17.14 114.68 16.15L114.68 16.1C114.68 14.84 113.85 14.12 112.41 14.12C110.89 14.12 109.98 14.86 109.7 15.88L105.78 15.56C106.37 12.78 108.77 11.03 112.43 11.03C115.84 11.03 118.92 12.56 118.92 16.19L118.92 26.5L114.9 26.5L114.9 24.38L114.78 24.38ZM72.08 23.11C73.6 23.11 75 22.04 75 19.99L75 11.22L79.23 11.22L79.23 26.5L75.17 26.5L75.17 23.72L75 23.72C74.32 25.51 72.67 26.69 70.38 26.69C67.3 26.69 65.21 24.52 65.2 20.94L65.2 11.22L69.44 11.22L69.44 20.19C69.45 21.99 70.48 23.11 72.08 23.11ZM51.71 18.89C51.71 21.55 52.8 23.51 54.94 23.51C57.04 23.51 58.14 21.55 58.14 18.89C58.14 16.22 57.04 14.25 54.94 14.25C52.8 14.25 51.71 16.22 51.71 18.89ZM109.29 22.09C109.29 23.25 110.22 23.86 111.53 23.86C113.39 23.86 114.71 22.64 114.71 21.03L114.71 19.41C114.2 19.75 112.69 19.97 111.77 20.1C110.28 20.31 109.29 20.9 109.29 22.09Z" fill="#000000" fill-opacity="1.000000" fill-rule="evenodd"/>
</svg>
