<svg width="111.000000" height="28.000000" viewBox="0 0 111 28" fill="none" xmlns="http://www.w3.org/2000/svg" xmlns:xlink="http://www.w3.org/1999/xlink">
	<desc>
			Created with Pixso.
	</desc>
	<defs/>
	<path id="🫔Panini" d="M85.5 7.11C85.5 8.29 84.46 9.25 83.2 9.25C81.94 9.25 80.91 8.29 80.91 7.11C80.91 5.93 81.94 4.97 83.2 4.97C84.46 4.97 85.5 5.93 85.5 7.11ZM110.53 7.11C110.53 8.29 109.49 9.25 108.23 9.25C106.97 9.25 105.94 8.29 105.94 7.11C105.94 5.93 106.97 4.97 108.23 4.97C109.49 4.97 110.53 5.93 110.53 7.11ZM34.07 26.5L29.77 26.5L29.77 6.13L37.8 6.13C42.43 6.13 45.1 8.99 45.1 13.04C45.1 17.1 42.37 19.89 37.69 19.89L34.07 19.89L34.07 26.5ZM34.07 9.65L34.07 16.44L36.99 16.44C39.46 16.44 40.66 15.05 40.66 13.04C40.66 11 39.46 9.65 36.97 9.65L34.07 9.65ZM56.23 24.38C55.49 25.8 54.03 26.78 51.77 26.78C48.85 26.78 46.7 25.25 46.7 22.23C46.7 18.82 49.42 17.81 52.44 17.53C55.09 17.27 56.13 17.14 56.13 16.15L56.13 16.1C56.13 14.84 55.31 14.12 53.87 14.12C52.35 14.12 51.44 14.86 51.15 15.88L47.23 15.56C47.82 12.78 50.23 11.03 53.89 11.03C57.29 11.03 60.37 12.56 60.37 16.19L60.37 26.5L56.35 26.5L56.35 24.38L56.23 24.38ZM70.79 14.55C69.08 14.55 67.9 15.69 67.9 17.66L67.9 26.5L63.66 26.5L63.66 11.22L67.7 11.22L67.7 13.92L67.88 13.92C68.56 12.14 70.2 11.03 72.47 11.03C75.65 11.03 77.74 13.21 77.74 16.77L77.74 26.5L73.5 26.5L73.5 17.53C73.52 15.66 72.49 14.55 70.79 14.55ZM95.82 14.55C94.11 14.55 92.93 15.69 92.92 17.66L92.92 26.5L88.69 26.5L88.69 11.22L92.73 11.22L92.73 13.92L92.9 13.92C93.59 12.14 95.23 11.03 97.5 11.03C100.68 11.03 102.77 13.21 102.77 16.77L102.77 26.5L98.53 26.5L98.53 17.53C98.54 15.66 97.52 14.55 95.82 14.55ZM85.31 26.5L81.07 26.5L81.07 11.22L85.31 11.22L85.31 26.5ZM110.34 26.5L106.1 26.5L106.1 11.22L110.34 11.22L110.34 26.5ZM50.75 22.09C50.75 23.25 51.68 23.86 52.98 23.86C54.84 23.86 56.16 22.64 56.16 21.03L56.16 19.41C55.66 19.75 54.15 19.97 53.22 20.1C51.73 20.31 50.75 20.9 50.75 22.09Z" fill="#000000" fill-opacity="1.000000" fill-rule="evenodd"/>
</svg>
